<?xml version="1.0" encoding="UTF-8" standalone="no"?> <!-- Created with Vectornator for iOS (http://vectornator.io/) --><!DOCTYPE svg PUBLIC "-//W3C//DTD SVG 1.1//EN" "http://www.w3.org/Graphics/SVG/1.1/DTD/svg11.dtd">
<svg height="100%" style="fill-rule:evenodd;clip-rule:evenodd;stroke-linecap:round;stroke-linejoin:round;" xmlns:xlink="http://www.w3.org/1999/xlink" xmlns="http://www.w3.org/2000/svg" xml:space="preserve" width="100%" xmlns:vectornator="http://vectornator.io" version="1.1" viewBox="0 0 540 540">
<metadata>
<vectornator:setting key="DimensionsVisible" value="0"/>
<vectornator:setting key="PencilOnly" value="0"/>
<vectornator:setting key="SnapToPoints" value="0"/>
<vectornator:setting key="OutlineMode" value="0"/>
<vectornator:setting key="CMYKEnabledKey" value="0"/>
<vectornator:setting key="RulersVisible" value="1"/>
<vectornator:setting key="SnapToEdges" value="0"/>
<vectornator:setting key="GuidesVisible" value="0"/>
<vectornator:setting key="DisplayWhiteBackground" value="0"/>
<vectornator:setting key="doHistoryDisabled" value="0"/>
<vectornator:setting key="SnapToGuides" value="1"/>
<vectornator:setting key="TimeLapseWatermarkDisabled" value="0"/>
<vectornator:setting key="Units" value="Points"/>
<vectornator:setting key="DynamicGuides" value="1"/>
<vectornator:setting key="IsolateActiveLayer" value="0"/>
<vectornator:setting key="SnapToGrid" value="0"/>
</metadata>
<defs/>
<g id="图层-1" vectornator:layerName="图层-1">
<path stroke="#3d2a21" fill-rule="evenodd" stroke-width="0.408131" d="M372.844+78.5014L372.844+79.5218C373.354+79.2667+373.354+79.2667+373.864+79.0116L373.864+80.0319C375.264+79.3325+376.925+79.8559+376.925+81.5624C380.627+81.5624+387.885+84.0959+389.679+87.6844C394.43+85.3091+407.287+99.8457+412.127+101.459C412.127+107.368+430.111+116.639+432.533+123.906C434.631+123.906+451.889+152.025+450.389+155.026C450.899+154.771+450.899+154.771+451.409+154.516C451.409+161.34+457.038+169.642+458.551+176.453C462.745+195.324+464.673+217.483+464.673+236.142C464.673+247.429+472.854+263.667+465.184+273.894C454.079+288.7+447.432+284.556+433.043+291.75C421.968+297.287+415.159+312.291+401.413+315.728C397.82+316.626+373.819+323.096+373.354+325.421C372.06+331.89+379.641+344.364+381.517+350.929C388.72+376.14+396.893+399.674+400.393+425.923C402.278+440.06+400.903+461.804+384.578+467.246C385.088+467.501+385.088+467.501+385.598+467.757C368.252+480.766+357.204+475.919+337.132+475.919C332.91+475.919+329.748+469.797+326.929+469.797C322.027+484.5+286.305+480.511+275.403+480.511C271.83+480.511+268.29+475.495+266.22+475.409C258.234+475.076+250.233+475.544+242.242+475.409C234.839+475.284+227.781+473.65+220.815+471.328L220.815+470.307C210.827+470.307+208.575+461.724+196.327+463.165C162.543+467.14+115.136+487.286+82.5606+476.429L82.5606+475.409C55.1102+475.409+72.345+414.015+89.7028+419.801C89.1927+419.546+89.1927+419.546+88.6825+419.291C125.283+400.991+156.62+404.137+198.368+400.925C199.839+400.812+199.293+399.041+199.388+398.374C200.426+391.109+204.166+377.719+208.571+371.846C213.267+365.584+214.595+354.088+220.305+348.378C225.928+342.755+234.889+330.434+238.671+322.87C239.019+322.174+224.768+317.896+222.856+317.258C214.276+314.398+195.29+304.981+191.225+296.852C180.868+302.031+138.137+284.767+125.414+280.526L125.414+279.506C121.118+278.432+112.66+272.671+112.66+267.772L111.64+267.772C111.64+259.708+105.183+251.257+107.559+241.754C111.993+224.013+120.654+179.344+139.699+169.821C138.881+168.185+146.813+157.067+148.882+157.067C148.882+153.049+162.662+141.343+165.207+138.701C179.41+123.952+194.234+108.031+210.102+95.3368L210.102+96.3572C216.621+89.8378+227.167+87.4548+233.059+81.5624C233.569+81.8175+233.569+81.8175+234.079+82.0726C238.537+75.3864+259.453+72.5794+267.24+70.849C304.788+62.5047+336.948+69.5276+372.844+78.5014Z" fill="#3d2a21" stroke-linecap="round" opacity="1" stroke-linejoin="round"/>
<path stroke="#010000" fill-rule="evenodd" stroke-width="0.408131" d="M382.537+88.7047L382.537+89.725C385.299+89.725+388+92.3963+390.7+93.2962L390.7+94.3165C394.614+94.3165+414.167+108.288+414.167+112.172L415.187+112.172L415.187+113.193L416.208+113.193C416.208+116.329+438.953+138.873+441.206+147.884L442.226+147.884L442.226+149.924L443.247+149.924L443.247+150.945C418.486+150.945+374.202+141.196+350.397+157.067C337.921+165.384+336.612+176.654+337.132+191.758C337.198+193.656+336.987+196.349+339.173+196.349C344.585+223.411+401.478+217.916+417.228+218.286C431.871+218.631+446.492+221.302+456.511+209.614C456.511+233.311+452.912+257.436+438.655+276.445C433.382+283.475+423.851+290.488+419.269+297.362C415.933+302.366+403.996+310.11+397.842+311.136C386.55+313.018+373.187+319.506+362.641+321.85C356.926+323.119+334.397+320.199+333.051+324.911C331.399+330.692+361.222+327.591+369.273+326.441L369.273+327.461L370.293+327.461C370.293+333.228+372.55+338.16+373.354+343.787L374.374+343.787C374.374+362.394+388.124+381.32+390.189+399.905L391.21+399.905C391.21+415.051+395.291+430.212+395.291+445.82C395.291+450.673+390.428+454.288+389.169+458.063C387.399+457.178+389.778+432.104+389.679+425.413C389.573+418.176+384.998+368.443+376.925+365.214C375.806+379.764+380.812+394.503+382.027+409.088L383.047+409.088C383.047+427.905+391.842+464.097+369.783+469.287C358.678+471.9+348.479+474.09+335.602+469.797L335.602+468.777C326.586+468.777+329.417+447.671+326.929+440.208C319.199+417.016+320.612+392.102+319.787+367.764C312.495+366.306+314.685+381.704+314.685+407.557C314.685+416.315+315.626+425.096+317.746+433.576L318.766+433.576C318.766+444.783+323.72+453.571+323.358+466.226C323.078+476.03+282.719+477.338+275.403+474.899L275.403+473.879C269+473.879+263.037+467.39+261.118+461.635L260.098+461.635C260.098+453.905+254.634+443.283+253.466+435.106C250.194+412.209+251.501+388.742+250.405+365.724C239.35+365.724+244.793+396.504+244.793+413.169C244.793+428.617+249.445+443.126+251.935+458.063L252.955+458.063C252.955+462.645+257.002+465.578+258.057+469.797C245.516+469.797+230.988+470.547+219.285+464.696C186.976+448.541+203.462+395.839+215.713+371.336C219.2+364.363+238.227+325.276+243.772+324.4C252.765+322.981+264.413+325.546+273.362+326.441C272.202+319.48+246.713+318.802+239.181+316.748C219.73+311.443+185.847+296.02+178.982+275.425C176.073+275.425+177.086+270.323+174.39+270.323C174.39+264.94+167.042+254.249+164.697+248.386C160.283+237.35+159.532+224.297+159.085+212.675C164.873+212.675+173.27+220.646+181.022+220.837C224.471+221.91+266.963+219.026+310.094+216.756C334.923+215.449+327.4+162.168+317.236+162.168C317.236+159.612+313.155+160.643+313.155+158.087C304.847+158.087+295.447+153.045+286.626+152.475C248.662+150.026+208.073+147.753+170.819+157.067C202.479+93.7472+257.16+65.3305+328.97+72.8896C348.513+74.9466+364.387+84.1673+382.537+88.7047Z" fill="#010000" stroke-linecap="round" opacity="1" stroke-linejoin="round"/>
<path stroke="#020101" fill-rule="evenodd" stroke-width="0.408131" d="M196.837+406.537C196.837+415.77+195.577+425.414+195.307+434.596L196.327+434.596L196.327+441.738L197.347+441.738C197.347+444.849+198.138+446.94+198.878+449.901L199.898+449.901C199.898+451.741+200.471+453.211+200.919+455.002C202.576+455.002+202.467+456.076+202.959+457.553C162.138+457.553+120.299+482.715+81.5402+469.797C81.5402+469.196+74.4729+461.635+73.8878+461.635L73.8878+458.063L72.8674+458.063C72.8674+403.736+162.359+406.537+196.837+406.537Z" fill="#020101" stroke-linecap="round" opacity="1" stroke-linejoin="round"/>
<path stroke="#040202" fill-rule="evenodd" stroke-width="0.408131" d="M173.88+136.15C175.534+141.112+163.213+159.524+160.616+164.719C151.406+183.14+150.601+214.797+155.004+234.612C144.652+235.408+132.079+238.158+123.884+244.305C121.42+246.153+115.67+252.978+113.17+252.978C113.17+195.616+144.651+179.993+173.88+136.15Z" fill="#040202" stroke-linecap="round" opacity="1" stroke-linejoin="round"/>
<path stroke="#020101" fill-rule="evenodd" stroke-width="0.408131" d="M219.795+157.577C240.371+157.44+260.949+157.41+281.525+157.577C296.365+157.698+300.844+198.966+291.218+208.593C281.846+217.964+227.785+215.225+220.305+215.225C196.04+215.225+194.797+199.24+194.797+177.473C194.797+172.884+199.473+158.951+205+158.087C209.875+157.325+214.86+157.61+219.795+157.577Z" fill="#020101" stroke-linecap="round" opacity="1" stroke-linejoin="round"/>
<path stroke="#040202" fill-rule="evenodd" stroke-width="0.408131" d="M373.864+207.573L373.864+206.553L372.844+206.553L372.844+205.532L371.824+205.532C371.289+203.93+370.707+202.596+370.293+200.941L369.273+200.941C369.273+188.372+363.831+173.789+370.803+162.168C376.853+152.085+382.528+155.165+396.311+155.026C407.906+154.909+422.804+149.378+431.003+157.577C442.193+168.767+446.084+204.805+428.962+211.654C421.007+214.836+403.114+212.467+394.781+212.164C383.244+211.745+382.459+210.438+373.864+207.573Z" fill="#040202" stroke-linecap="round" opacity="1" stroke-linejoin="round"/>
<path stroke="#aacc93" fill-rule="evenodd" stroke-width="0.408131" d="M182.553+290.219C157.556+290.219+127.964+281.29+114.191+260.63C117.163+257.162+150.453+230.937+156.024+240.223C160.686+247.993+159.967+259.085+165.717+266.752C170.872+273.625+178.852+282.819+182.553+290.219Z" fill="#aacc93" stroke-linecap="round" opacity="1" stroke-linejoin="round"/>
<path stroke="#f4f3c4" fill-rule="evenodd" stroke-width="0.408131" d="M196.837+158.597C196.837+161.113+191.611+168.28+190.715+171.861C185.924+191.025+189.512+202.197+198.878+216.246C188.087+216.246+172.289+217.716+163.677+209.103C153.034+198.461+160.607+170.677+171.839+163.189C178.101+159.014+189.733+158.597+196.837+158.597Z" fill="#f4f3c4" stroke-linecap="round" opacity="1" stroke-linejoin="round"/>
<path stroke="#f3f2c4" fill-rule="evenodd" stroke-width="0.408131" d="M291.728+158.597C312.621+158.597+331.635+181.874+319.277+202.471C312.799+213.267+308.324+207.823+296.829+211.654C305.01+200.746+307.435+180.221+298.87+168.8C297.284+166.686+291.728+160.802+291.728+158.597Z" fill="#f3f2c4" stroke-linecap="round" opacity="1" stroke-linejoin="round"/>
<path stroke="#f3f1c3" fill-rule="evenodd" stroke-width="0.408131" d="M367.742+156.557C368.718+158.507+361.846+172.96+361.62+176.453C361.105+184.44+360.577+192.709+363.151+200.431C364.274+203.801+369.273+208.489+369.273+211.144C351.531+211.144+329.367+185.76+344.785+168.8C351.414+161.508+358.733+158.809+367.742+156.557Z" fill="#f3f1c3" stroke-linecap="round" opacity="1" stroke-linejoin="round"/>
<path stroke="#f2efc4" fill-rule="evenodd" stroke-width="0.408131" d="M436.104+155.026C460.123+159.83+464.104+208.603+436.614+213.185C445.967+200.715+452.553+164.526+435.594+156.046C435.849+155.536+435.849+155.536+436.104+155.026Z" fill="#f2efc4" stroke-linecap="round" opacity="1" stroke-linejoin="round"/>
</g>
</svg>
