<?xml version="1.0" encoding="UTF-8" standalone="no"?>
<!DOCTYPE svg PUBLIC "-//W3C//DTD SVG 1.1//EN" "http://www.w3.org/Graphics/SVG/1.1/DTD/svg11.dtd">
<svg width="100%" height="100%" viewBox="0 0 540 540" version="1.1" xmlns="http://www.w3.org/2000/svg" xmlns:xlink="http://www.w3.org/1999/xlink" xml:space="preserve" xmlns:serif="http://www.serif.com/" style="fill-rule:evenodd;clip-rule:evenodd;stroke-linecap:round;stroke-linejoin:round;">
    <g id="图层-1" serif:id="图层 1" transform="matrix(1,0,0,1,-270,-270)">
        <g transform="matrix(0.510164,0,0,0.510164,266.853,238.306)">
            <path d="M737,216L737,218C738,217.5 738,217.5 739,217L739,219C741.743,217.629 745,218.655 745,222C752.256,222 766.483,226.966 770,234C779.313,229.344 804.513,257.838 814,261C814,272.582 849.252,290.755 854,305C858.113,305 891.941,360.118 889,366C890,365.5 890,365.5 891,365C891,378.377 902.033,394.65 905,408C913.22,444.99 917,488.426 917,525C917,547.125 933.035,578.954 918,599C896.234,628.021 883.204,619.898 855,634C833.291,644.854 819.944,674.264 793,681C785.957,682.761 738.911,695.444 738,700C735.464,712.681 750.323,737.131 754,750C768.119,799.417 784.14,845.548 791,897C794.695,924.71 792,967.333 760,978C761,978.5 761,978.5 762,979C727.999,1004.5 706.344,995 667,995C658.724,995 652.526,983 647,983C637.392,1011.82 567.37,1004 546,1004C538.997,1004 532.058,994.169 528,994C512.347,993.348 496.664,994.265 481,994C466.489,993.754 452.655,990.552 439,986L439,984C419.422,984 415.008,967.176 391,970C324.778,977.791 231.853,1017.28 168,996L168,994C114.193,994 147.976,873.659 182,885C181,884.5 181,884.5 180,884C251.742,848.129 313.168,854.295 395,848C397.883,847.778 396.813,844.307 397,843C399.035,828.758 406.366,802.513 415,791C424.205,778.727 426.808,756.192 438,745C449.022,733.978 466.587,709.826 474,695C474.683,693.635 446.749,685.25 443,684C426.182,678.394 388.967,659.935 381,644C360.697,654.152 276.938,620.313 252,612L252,610C243.578,607.894 227,596.603 227,587L225,587C225,571.192 212.343,554.628 217,536C225.693,501.226 242.669,413.666 280,395C278.397,391.794 293.945,370 298,370C298,362.125 325.012,339.18 330,334C357.839,305.09 386.898,273.882 418,249L418,251C430.779,238.221 451.45,233.55 463,222C464,222.5 464,222.5 465,223C473.738,209.894 514.737,204.392 530,201C603.6,184.644 666.639,198.41 737,216Z" style="fill:rgb(61,42,33);stroke:rgb(61,42,33);stroke-width:1px;"/>
        </g>
        <g transform="matrix(0.510164,0,0,0.510164,266.853,238.306)">
            <path d="M756,236L756,238C761.413,238 766.709,243.236 772,245L772,247C779.672,247 818,274.387 818,282L820,282L820,284L822,284C822,290.147 866.585,334.338 871,352L873,352L873,356L875,356L875,358C826.465,358 739.663,338.891 693,370C668.545,386.303 665.979,408.394 667,438C667.128,441.721 666.715,447 671,447C681.609,500.045 793.127,489.274 824,490C852.702,490.675 881.362,495.911 901,473C901,519.451 893.946,566.739 866,604C855.665,617.78 836.982,631.526 828,645C821.461,654.809 798.063,669.989 786,672C763.867,675.689 737.673,688.406 717,693C705.799,695.489 661.639,689.765 659,699C655.762,710.333 714.219,704.254 730,702L730,704L732,704C732,715.303 736.424,724.97 738,736L740,736C740,772.473 766.952,809.571 771,846L773,846C773,875.689 781,905.407 781,936C781,945.514 771.467,952.599 769,960C765.53,958.265 770.193,909.115 770,896C769.791,881.814 760.824,784.33 745,778C742.806,806.521 752.618,835.411 755,864L757,864C757,900.884 774.239,971.826 731,982C709.232,987.122 689.241,991.414 664,983L664,981C646.328,981 651.877,939.63 647,925C631.847,879.54 634.617,830.705 633,783C618.707,780.141 623,810.324 623,861C623,878.166 624.845,895.379 629,912L631,912C631,933.969 640.709,951.194 640,976C639.451,995.218 560.342,997.781 546,993L546,991C533.451,991 521.761,978.282 518,967L516,967C516,951.848 505.29,931.029 503,915C496.588,870.118 499.149,824.119 497,779C475.331,779 486,839.333 486,872C486,902.28 495.12,930.72 500,960L502,960C502,968.981 509.932,974.73 512,983C487.417,983 458.941,984.47 436,973C372.67,941.335 404.985,838.03 429,790C435.834,776.332 473.13,699.716 484,698C501.626,695.217 524.458,700.246 542,702C539.726,688.355 489.765,687.027 475,683C436.873,672.602 370.457,642.37 357,602C351.298,602 353.285,592 348,592C348,581.449 333.597,560.493 329,549C320.347,527.368 318.876,501.781 318,479C329.345,479 345.805,494.625 361,495C446.167,497.103 529.458,491.45 614,487C662.67,484.438 647.923,380 628,380C628,374.989 620,377.011 620,372C603.716,372 585.29,362.116 568,361C493.584,356.199 414.023,351.744 341,370C403.058,245.884 510.242,190.183 651,205C689.308,209.032 720.423,227.106 756,236Z" style="fill:rgb(1,0,0);stroke:rgb(1,0,0);stroke-width:1px;"/>
        </g>
        <g transform="matrix(0.510164,0,0,0.510164,266.853,238.306)">
            <path d="M392,859C392,877.099 389.529,896.002 389,914L391,914L391,928L393,928C393,934.098 394.549,938.196 396,944L398,944C398,947.607 399.122,950.488 400,954C403.248,954 403.035,956.105 404,959C323.985,959 241.974,1008.32 166,983C166,981.821 152.147,967 151,967L151,960L149,960C149,853.51 324.418,859 392,859Z" style="fill:rgb(2,1,1);stroke:rgb(2,1,1);stroke-width:1px;"/>
        </g>
        <g transform="matrix(0.510164,0,0,0.510164,266.853,238.306)">
            <path d="M347,329C350.242,338.726 326.092,374.816 321,385C302.947,421.107 301.369,483.16 310,522C289.708,523.561 265.064,528.952 249,541C244.171,544.622 232.9,558 228,558C228,445.563 289.707,414.939 347,329Z" style="fill:rgb(4,2,2);stroke:rgb(4,2,2);stroke-width:1px;"/>
        </g>
        <g transform="matrix(0.510164,0,0,0.510164,266.853,238.306)">
            <path d="M437,371C477.332,370.731 517.668,370.672 558,371C587.09,371.237 595.87,452.13 577,471C558.631,489.369 452.663,484 438,484C390.437,484 388,452.667 388,410C388,401.004 397.166,373.693 408,372C417.556,370.507 427.328,371.064 437,371Z" style="fill:rgb(2,1,1);stroke:rgb(2,1,1);stroke-width:1px;"/>
        </g>
        <g transform="matrix(0.510164,0,0,0.510164,266.853,238.306)">
            <path d="M739,469L739,467L737,467L737,465L735,465C733.953,461.86 732.811,459.245 732,456L730,456C730,431.363 719.333,402.779 733,380C744.859,360.235 755.983,366.273 783,366C805.727,365.77 834.929,354.929 851,371C872.934,392.934 880.562,463.575 847,477C831.407,483.237 796.335,478.594 780,478C757.386,477.178 755.848,474.616 739,469Z" style="fill:rgb(4,2,2);stroke:rgb(4,2,2);stroke-width:1px;"/>
        </g>
        <g transform="matrix(0.510164,0,0,0.510164,266.853,238.306)">
            <path d="M364,631C315.002,631 256.998,613.497 230,573C235.826,566.202 301.079,514.798 312,533C321.138,548.23 319.729,569.972 331,585C341.104,598.472 356.747,616.493 364,631Z" style="fill:rgb(170,204,147);stroke:rgb(170,204,147);stroke-width:1px;"/>
        </g>
        <g transform="matrix(0.510164,0,0,0.510164,266.853,238.306)">
            <path d="M392,373C392,377.932 381.755,391.98 380,399C370.609,436.564 377.641,458.462 396,486C374.849,486 343.881,488.881 327,472C306.139,451.139 320.983,396.678 343,382C355.274,373.817 378.075,373 392,373Z" style="fill:rgb(244,243,196);stroke:rgb(244,243,196);stroke-width:1px;"/>
        </g>
        <g transform="matrix(0.510164,0,0,0.510164,266.853,238.306)">
            <path d="M578,373C618.954,373 656.224,418.627 632,459C619.303,480.162 610.531,469.49 588,477C604.036,455.618 608.789,415.386 592,393C588.891,388.855 578,377.321 578,373Z" style="fill:rgb(243,242,196);stroke:rgb(243,242,196);stroke-width:1px;"/>
        </g>
        <g transform="matrix(0.510164,0,0,0.510164,266.853,238.306)">
            <path d="M727,369C728.912,372.823 715.442,401.153 715,408C713.99,423.655 712.955,439.864 718,455C720.202,461.606 730,470.796 730,476C695.223,476 651.779,426.243 682,393C694.995,378.706 709.34,373.415 727,369Z" style="fill:rgb(243,241,195);stroke:rgb(243,241,195);stroke-width:1px;"/>
        </g>
        <g transform="matrix(0.510164,0,0,0.510164,266.853,238.306)">
            <path d="M861,366C908.08,375.416 915.884,471.019 862,480C880.332,455.557 893.243,384.621 860,368C860.5,367 860.5,367 861,366Z" style="fill:rgb(242,239,196);stroke:rgb(242,239,196);stroke-width:1px;"/>
        </g>
    </g>
</svg>
